<?xml version="1.0" encoding="utf-8"?>
<!-- Generator: Adobe Illustrator 19.0.0, SVG Export Plug-In . SVG Version: 6.00 Build 0)  -->
<svg version="1.1" id="Layer_1" xmlns="http://www.w3.org/2000/svg" xmlns:xlink="http://www.w3.org/1999/xlink" x="0px" y="0px"
	 viewBox="0 0 1360.8 300" style="enable-background:new 0 0 1360.8 300;" xml:space="preserve">
<style type="text/css">
	.st0{fill-rule:evenodd;clip-rule:evenodd;fill:#9EC63B;}
	.st1{fill-rule:evenodd;clip-rule:evenodd;fill:#FFFFFF;}
	.st2{fill:#FFFFFF;}
	.st3{fill:#9EC63B;}
</style>
<path class="st0" d="M225.5,78.2l-21.7,167.5L312,203.2L225.5,78.2z M230.9,103l67,94.9l-83.8,32.3L230.9,103z"/>
<polygon class="st1" points="212.9,249.6 201.8,285.6 19.1,175.7 283.3,20.7 256,109.4 262.6,118.9 299.2,0 0,175.5 206.9,300 
	223.7,245.3 "/>
<g>
	<path class="st2" d="M358.6,129.9l33.6,94h0.4l33.2-94h13.5l-40,107.1h-13.9l-41.3-107.1H358.6z"/>
	<path class="st2" d="M461.8,201.6c1.3,5.1,3.4,9.6,6.3,13.6c2.9,4,6.6,7.3,11,10c4.4,2.6,9.8,3.9,16,3.9c9.5,0,17-2.5,22.4-7.5
		c5.4-5,9.1-11.6,11.2-19.9h13.1c-2.8,12.2-7.9,21.6-15.3,28.2c-7.4,6.6-17.9,10-31.4,10c-8.4,0-15.7-1.5-21.9-4.5
		c-6.2-3-11.2-7.1-15-12.2c-3.9-5.2-6.7-11.2-8.6-18.1s-2.8-14.1-2.8-21.7c0-7.1,0.9-14,2.8-20.7c1.9-6.8,4.7-12.8,8.6-18.2
		c3.9-5.3,8.9-9.6,15-12.9c6.2-3.2,13.5-4.9,21.9-4.9c8.6,0,15.9,1.7,22,5.2c6.1,3.5,11,8,14.8,13.6c3.8,5.6,6.5,12,8.2,19.3
		c1.7,7.3,2.4,14.6,2.1,22.1h-82.4C459.8,191.6,460.5,196.5,461.8,201.6z M526.6,161.6c-1.6-4.6-3.8-8.6-6.7-12.1s-6.4-6.4-10.6-8.5
		c-4.1-2.1-8.9-3.2-14.1-3.2c-5.4,0-10.2,1.1-14.3,3.2c-4.1,2.1-7.7,5-10.6,8.5c-2.9,3.5-5.2,7.6-7,12.2c-1.7,4.6-2.9,9.4-3.4,14.2
		h69.3C529,171,528.1,166.2,526.6,161.6z"/>
	<path class="st2" d="M572.7,129.9v18.5h0.4c2.5-6.5,6.9-11.7,13.3-15.7c6.4-3.9,13.3-5.9,21-5.9c7.5,0,13.7,1,18.8,2.9
		c5,1.9,9.1,4.7,12.1,8.2c3,3.5,5.2,7.9,6.4,13c1.2,5.1,1.9,10.9,1.9,17.2v68.9h-13.1v-66.8c0-4.6-0.4-8.8-1.2-12.8
		s-2.3-7.4-4.4-10.3c-2.1-2.9-4.9-5.2-8.4-6.8c-3.5-1.7-7.9-2.5-13.2-2.5c-5.3,0-9.9,0.9-14,2.8c-4.1,1.9-7.5,4.4-10.4,7.7
		c-2.8,3.3-5.1,7.1-6.6,11.6c-1.6,4.5-2.5,9.4-2.6,14.6v62.5h-13.1V129.9H572.7z"/>
	<path class="st2" d="M713.8,129.9v11H692v72.2c0,4.3,0.6,7.6,1.8,10.1c1.2,2.4,4.1,3.8,8.8,4c3.7,0,7.5-0.2,11.2-0.6v11
		c-1.9,0-3.9,0.1-5.8,0.2c-1.9,0.1-3.9,0.2-5.8,0.2c-8.7,0-14.8-1.7-18.3-5.1c-3.5-3.4-5.1-9.6-5-18.8v-73.2h-18.7v-11H679V97.7H692
		v32.2H713.8z"/>
	<path class="st2" d="M807.4,236.9v-19.3H807c-3.5,7.2-8.5,12.7-15,16.5c-6.6,3.8-13.9,5.7-21.9,5.7c-6.8,0-12.6-0.9-17.3-2.8
		c-4.8-1.9-8.6-4.5-11.6-8c-3-3.5-5.2-7.7-6.5-12.7c-1.4-5-2.1-10.7-2.1-17v-69.5h13.1v69.7c0.3,9.7,2.5,17,6.7,22
		c4.2,5,11.5,7.5,21.9,7.5c5.7,0,10.5-1.2,14.5-3.6c4-2.4,7.3-5.6,10-9.6c2.6-4,4.6-8.6,5.8-13.8c1.2-5.2,1.9-10.5,1.9-15.9v-56.2
		h13.1v107.1H807.4z"/>
	<path class="st2" d="M856.2,129.9V155h0.4c3.3-8.7,8.5-15.4,15.5-20.1c7-4.7,15.3-6.8,25-6.4v13.1c-5.9-0.3-11.3,0.5-16.2,2.4
		c-4.8,1.9-9,4.5-12.6,8c-3.5,3.5-6.3,7.6-8.2,12.3c-1.9,4.8-2.9,10-2.9,15.7v57.1h-13.1V129.9H856.2z"/>
	<path class="st2" d="M915.4,201.6c1.3,5.1,3.4,9.6,6.3,13.6c2.9,4,6.6,7.3,11,10c4.4,2.6,9.8,3.9,16,3.9c9.5,0,17-2.5,22.4-7.5
		c5.4-5,9.1-11.6,11.2-19.9h13.1c-2.8,12.2-7.9,21.6-15.2,28.2c-7.4,6.6-17.9,10-31.4,10c-8.4,0-15.7-1.5-21.9-4.5
		c-6.2-3-11.2-7.1-15-12.2c-3.9-5.2-6.7-11.2-8.6-18.1s-2.8-14.1-2.8-21.7c0-7.1,0.9-14,2.8-20.7c1.9-6.8,4.7-12.8,8.6-18.2
		c3.9-5.3,8.9-9.6,15-12.9c6.2-3.2,13.5-4.9,21.9-4.9c8.6,0,15.9,1.7,22,5.2c6.1,3.5,11,8,14.8,13.6c3.8,5.6,6.5,12,8.2,19.3
		c1.7,7.3,2.4,14.6,2.1,22.1h-82.4C913.4,191.6,914.1,196.5,915.4,201.6z M980.1,161.6c-1.6-4.6-3.8-8.6-6.7-12.1
		c-2.9-3.5-6.4-6.4-10.6-8.5c-4.1-2.1-8.9-3.2-14.1-3.2c-5.4,0-10.2,1.1-14.3,3.2c-4.2,2.1-7.7,5-10.6,8.5c-2.9,3.5-5.2,7.6-7,12.2
		c-1.7,4.6-2.9,9.4-3.4,14.2h69.3C982.6,171,981.7,166.2,980.1,161.6z"/>
</g>
<g>
	<path class="st3" d="M1095.9,236.9v-20.3h-0.4c-1.4,3.5-3.4,6.6-6.1,9.5s-5.8,5.4-9.2,7.4c-3.5,2-7.2,3.6-11.1,4.7
		c-3.9,1.1-7.9,1.7-11.7,1.7c-8.2,0-15.2-1.5-21.3-4.5s-11-7.1-15-12.2c-4-5.2-7-11.2-8.9-18.1c-1.9-6.8-2.9-14.1-2.9-21.7
		c0-7.6,1-14.8,2.9-21.7c1.9-6.8,4.9-12.9,8.9-18.1c4-5.2,9-9.3,15-12.3c6-3,13.1-4.6,21.3-4.6c4,0,7.9,0.5,11.7,1.5
		c3.8,1,7.4,2.5,10.7,4.5c3.3,2,6.3,4.5,8.8,7.4c2.6,2.9,4.5,6.3,5.9,10.2h0.4V88.8h13.1v148.1H1095.9z M1024.2,199.9
		c1.3,5.5,3.4,10.3,6.2,14.6c2.8,4.3,6.5,7.8,10.9,10.5c4.4,2.7,9.8,4,16,4c6.9,0,12.8-1.3,17.5-4c4.8-2.7,8.6-6.2,11.6-10.5
		c3-4.3,5.1-9.2,6.4-14.6c1.3-5.5,2-11,2-16.5c0-5.5-0.7-11-2-16.5c-1.3-5.5-3.5-10.3-6.4-14.6c-3-4.3-6.8-7.8-11.6-10.5
		c-4.8-2.7-10.6-4-17.5-4c-6.2,0-11.6,1.3-16,4c-4.4,2.7-8.1,6.2-10.9,10.5c-2.8,4.3-4.9,9.2-6.2,14.6c-1.3,5.5-2,11-2,16.5
		C1022.3,188.9,1022.9,194.4,1024.2,199.9z"/>
	<path class="st3" d="M1146.1,88.8v21h-13.1v-21H1146.1z M1146.1,129.9v107.1h-13.1V129.9H1146.1z"/>
	<path class="st3" d="M1173.7,129.9l33.6,94h0.4l33.2-94h13.5l-40,107.1h-13.9l-41.3-107.1H1173.7z"/>
	<path class="st3" d="M1277,201.6c1.3,5.1,3.4,9.6,6.3,13.6c2.9,4,6.6,7.3,11,10c4.4,2.6,9.8,3.9,16,3.9c9.5,0,17-2.5,22.4-7.5
		c5.4-5,9.1-11.6,11.2-19.9h13.1c-2.8,12.2-7.9,21.6-15.2,28.2c-7.4,6.6-17.9,10-31.4,10c-8.4,0-15.7-1.5-21.9-4.5
		c-6.2-3-11.2-7.1-15-12.2c-3.9-5.2-6.7-11.2-8.6-18.1s-2.8-14.1-2.8-21.7c0-7.1,0.9-14,2.8-20.7c1.9-6.8,4.7-12.8,8.6-18.2
		c3.9-5.3,8.9-9.6,15-12.9c6.2-3.2,13.5-4.9,21.9-4.9c8.6,0,15.9,1.7,22,5.2c6.1,3.5,11,8,14.8,13.6c3.8,5.6,6.5,12,8.2,19.3
		c1.7,7.3,2.4,14.6,2.1,22.1H1275C1275,191.6,1275.7,196.5,1277,201.6z M1341.7,161.6c-1.6-4.6-3.8-8.6-6.7-12.1
		c-2.9-3.5-6.4-6.4-10.6-8.5c-4.1-2.1-8.9-3.2-14.1-3.2c-5.4,0-10.2,1.1-14.3,3.2c-4.2,2.1-7.7,5-10.6,8.5c-2.9,3.5-5.2,7.6-7,12.2
		c-1.7,4.6-2.9,9.4-3.4,14.2h69.3C1344.2,171,1343.3,166.2,1341.7,161.6z"/>
</g>
</svg>
